<svg id="visual" viewBox="0 0 900 600" width="900" height="600" xmlns="http://www.w3.org/2000/svg" xmlns:xlink="http://www.w3.org/1999/xlink" version="1.1"><rect x="0" y="0" width="900" height="600" fill="#DEECFF"></rect><g transform="translate(428.43126239115077 265.8179540448207)"><path d="M118.8 -152.4C163.2 -131.3 214.8 -108.9 240.8 -68.8C266.9 -28.6 267.6 29.3 248.7 78.7C229.7 128.2 191.3 169.3 146.6 201.9C101.9 234.6 50.9 258.8 -3.9 264.2C-58.8 269.6 -117.6 256.1 -141.3 216.7C-165.1 177.3 -153.9 111.8 -167.9 57.2C-182 2.7 -221.3 -41 -218.5 -77.6C-215.7 -114.2 -170.7 -143.6 -127.3 -165C-83.9 -186.4 -41.9 -199.7 -2.4 -196.5C37.2 -193.2 74.5 -173.5 118.8 -152.4" fill="#B2C8DF"></path></g></svg>